<?xml version="1.0" encoding="UTF-8"?>
<svg id="Layer_1" data-name="Layer 1" xmlns="http://www.w3.org/2000/svg" viewBox="0 0 110.01 112.02">
  <defs>
    <style>
      .cls-1 {
        fill: #3e3b88;
      }

      .cls-2 {
        fill: #666767;
      }

      .cls-3 {
        fill: #fdfdfd;
      }

      .cls-4 {
        fill: #0d8f4d;
      }

      .cls-5 {
        fill: #d73136;
      }

      .cls-6 {
        fill: #3f3c88;
      }

      .cls-7 {
        fill: #058e4c;
      }

      .cls-8 {
        fill: #181717;
      }

      .cls-9 {
        fill: #161515;
      }

      .cls-10 {
        fill: #c8c9c9;
      }

      .cls-11 {
        fill: #151414;
      }

      .cls-12 {
        fill: #9fa0a1;
      }

      .cls-13 {
        fill: #c6c6c6;
      }

      .cls-14 {
        fill: #d0d0d0;
      }

      .cls-15 {
        fill: #bebfc0;
      }
    </style>
  </defs>
  <path class="cls-14" d="M52.28,3.25c40.25-1.75,66.79,41.55,46.29,76.53-18.4,31.4-63.15,33.64-84.75,4.34C-10.17,51.6,12.08,5,52.28,3.25ZM54.98,13.37l-1.14-4.38c-.19-.23-.95-.06-1.23.02l-.81,4.46c.17-.03.84.05.89,0,.08-.08.08-1.04.11-1.08.05-.06.9-.17.97-.1.07.06.15,1.02.3,1.14.09.07.7-.15.9-.06ZM55.38,13.47h2.04c.05,0,.21.16.35.1.22-1.18-.7-.71-1.49-.79l.1-1.29h1.39v-.7c-.28-.05-1.21.11-1.35-.09-.12-.18,0-1,.06-1h1.49v-.7s-2.39-.1-2.39-.1l-.2,4.58ZM61.35,13.97v-2.04c0-.22-.45-.25-.3-.45.07-.09.39-.06.53-.52.25-.83.02-1.41-.82-1.63-.19-.05-1.65-.26-1.73-.24-.12.03-.14.14-.16.24-.24,1.34-.27,2.86-.49,4.22l.89.11c.08-.57.1-1.17.2-1.74.03-.14-.08-.17.14-.14.26.03.75.1.83.36.28.93-.78,1.85.92,1.82ZM47.92,9.39l.54,4.38c.07.1.19.1.3.1.3,0,1.54-.19,1.78-.32.89-.45.61-2.36.41-3.17-.43-1.79-1.66-1.05-3.04-.99ZM64.83,14.66v-3.73c0-.05-.12-.82-.14-.85-.06-.09-1-.28-1.06-.25-.25.14-1.69,3.65-1.99,4.18,1.3.61,1.02-.64,1.3-.84.09-.06.93.04.99.34.16.82-.59,1.07.89,1.14ZM43.74,12.28c.2.33,1.31,1.94,1.54,2.1.27.18.64.02.91-.1l-1.12-4.27-.74.15c-.07.27.57,2.3.7,2.73h-.1c-.17-.31-1.54-2.36-1.69-2.44-.11-.07-.69.22-.9.15.19.52.92,4.24,1.1,4.37.07.05.78-.09.79-.15.07-.37-.45-2.06-.6-2.53h.1ZM67.32,10.69s-.79-.24-.84-.1c-.05.55-1.39,4.11-1.24,4.28.03.03.71.18.75.18.18-.03.57-1.67.64-1.97l1.09.3c.08.07-.61,1.64-.5,2.03,0,.03.62.24.66.24.22-.03,1.24-3.77,1.35-4.29l-.8-.26-.51,1.69c-.23-.18-.75-.17-.94-.29-.26-.17.49-1.63.34-1.8ZM40.65,11.19c-.3.14-1.03.22-1.09.54l.4,4.43c.14-.02.86-.17.89-.21.13-.15-.22-1.11-.08-1.27.03-.03.78-.22.82-.22.11.02.35.75.56.86.3.15.6-.13.89-.15l-2.4-3.97ZM74.18,13.27c-.08-.11-2.26-.91-2.59-1.05-.54.74.07.69.6,1.01l-1.5,3.53c.19,0,.67.33.8.26.2-.12,1.26-3,1.49-3.44.11-.08.63.37.93.31.07-.02.3-.56.26-.6ZM38.07,14.96v.1c-.56-.31-1.54-1.74-1.99-1.94-.18-.08-.84.16-.89.31l1.74,4.02c.32-.04.77-.09.75-.45-.02-.27-.72-1.7-.9-2.04l.1-.1c.56.66,1.2,1.12,1.79,1.74.18.16.84-.15.88-.31.05-.22-1.56-3.55-1.84-4.01-.18.08-.75.18-.72.42.38.74.68,1.53,1.08,2.26ZM76.97,14.67c-.07-.1-1.91-.84-2.19-1-.09.55-2.07,3.79-1.95,3.98.06.1,1.95,1.1,2.05,1.05.13-.06.38-.52.29-.64l-1.28-.65.63-1.14c.38.11,1.13.86,1.37.36.37-.76-.92-.64-1.01-1.03-.04-.17.41-.69.39-.94.06-.05,1.02.61,1.34.61.21,0,.37-.57.35-.6ZM34.19,13.97c-.09-.06-.81.27-.79.44l1.55,2.84c.22.8-.45,1.22-.99.49-.34-.45-1.29-2.57-1.55-2.74-.16-.1-.6.23-.8.31.47.69,1.54,3.27,2.22,3.55.74.3,2.14-.48,2.15-1.27.01-.9-1.51-2.68-1.78-3.63ZM78.66,18.35c.76.02,1.34-.79,1.17-1.52-.13-.57-1.54-1.3-2.07-1.56-.18.62-2.35,3.45-2.3,3.82,0,.05.64.43.79.34.12-.07.65-1.35.97-1.47,1.39.55.13,1.34-.07,2.22l.9.46c-.07-.82,1.14-1.49.6-2.29ZM31.07,16.69c-.81-.83-2.46.04-2.46,1.11,0,.65,1.3,2.57,1.87,2.92.75.47,1.84.03,1.82-.88.33.33.5.1.79-.16-.21-.28-1.16-1.87-1.36-1.92-.18-.05-1.09.59-1.11.75-.01.09.29.52.34.53.08,0,.43-.38.55-.29.07.39.45.74.19,1.13-.52.8-1.44-.72-1.7-1.16-.2-.33-.62-.88-.43-1.27.35-.72,1.04.14,1.27.09.48-.11.59-.48.24-.85ZM45.93,89.77c1.34,3.73,5.2,6.61,7.86,9.4.18.19.55.93.59.3.31-4.63,1.58-5.91,4.87-8.9.58.24,1.37-.13,1.99-.2-1.13.91-2.31,2.05-3.29,3.13-1.04,1.15-2.18,2.5-2.14,4.13,2.01-1.33,4.2-2.68,5.37-4.87.4-.74.78-1.78,1.04-2.59,18.23-4.38,32.35-22.86,29.02-41.9-2.68-15.3-16.27-28.65-31.67-30.9-23.42-3.43-45.57,19.34-41.28,42.68,2.54,13.87,14.05,26.09,27.62,29.72ZM80.45,17.85c.19.05.7.36.7.55,0,.21-1.95,2.49-2.19,2.9-.04.22.51.47.64.63l2.24-2.94c.31-.16.64.49.83.45.27-.06.43-.47.16-.74-.13-.14-1.75-1.39-1.86-1.42-.26-.09-.57.52-.53.58ZM28.32,20.83v.1c-.29-.19-2.29-1.36-2.46-1.38-.17-.02-.73.34-.73.53.35.4,2.54,3.39,2.75,3.43.12.02.74-.39.62-.62l-1.78-2.06,2.65,1.48c.17-.07.75-.45.72-.62l-2.78-3.4-.69.51c.53.69,1.09,1.39,1.69,2.03ZM81.53,23.3l2.65-3.17c.19-.27-.42-.81-.64-.68l-2.8,3.32.5.5c.08.05.2.09.29.04ZM84.33,22.62l.1.1c-.15.33-1,2.27-.99,2.44,0,.15.5.72.69.6.36-.56,2.87-2.61,2.97-3.01.06-.25-.39-.71-.68-.58-.4.18-1.3,1.63-1.79,1.94l1.09-2.65c.06-.35-.43-.92-.75-.64l-2.89,2.99c-.12.19.36.6.5.6.29,0,1.47-1.49,1.74-1.79ZM27.53,23.72l-3.68-2.35c-.18-.11-.86.63-.89.73-.07.29,2.04,3.33,2.18,3.9,1.43-.28.16-1.28.2-1.52.01-.09.58-.65.69-.62.55.15.85,1.22,1.49-.14ZM22.85,25.11c.15-.67-.72-1.37-1.33-1.29-.33.04-.63.41-.86.64-.16.16-.73.82-.7.99l3.04,2.65c.41.44,1.53-1.11,1.6-1.4.2-.78-.94-1.96-1.74-1.59ZM86.82,26.3c-.05.06.75.66-.3.95-.48.13-.83-.26-.62-.73.12-.28,1.63-1.58,1.91-1.67.38-.12.79.07.79.5,0,.41-.79.58.05,1.15.37.25.8-.67.82-.97.03-.57-.85-1.58-1.43-1.62-.79-.05-3.08,1.83-3.12,2.64-.03.6.63,1.44,1.29,1.34.04.17-.17.06-.2.1-.06.08.27.63.44.59.11-.03,1.72-1.44,1.74-1.55-.04-.22-.71-1-.85-1.02-.03,0-.52.27-.53.29ZM20.17,29.39h-.1c-.33-.17-2.12-1.02-2.34-1-.2.02-.8.91-.75,1.13.57.25,3.19,2.46,3.54,2.46.14,0,.6-.55.5-.7l-2.64-1.89c.53.02,2.84,1.33,3.12,1.28.23-.04.31-.36.21-.58-.14-.29-1.16-1.2-1.44-1.55-.12-.15-.3-.35-.3-.54.1-.11,2.14,1.6,2.34,1.59.04,0,.5-.59.44-.73l-3.62-2.55c-.15.21-.78.92-.74,1.13.03.13,1.57,1.78,1.78,1.95ZM91,29.78c1.51-.45.73-2.67-.46-2.78-.69-.07-3.1,1.55-3.22,2.24s.26,1.57,1.09,1.54c-.4.4,0,.4.1.79.29-.21,1.94-1.24,1.98-1.46l-.74-1.13c-.09.05-.52.28-.54.31-.13.18.39.46.19.63-.48.42-1.55.37-1.22-.42.19-.44,2.75-2.48,2.82-1.08.02.48-.41.48-.4.68s.39.42.39.66ZM16.88,30.59c-.18-.01-.43-.27-.59-.17-.1.06-1.15,1.94-1.09,2.04l3.88,2.15c.2-.33,1.25-1.86,1.08-2.13-.02-.03-.55-.24-.58-.21-.07.05-.46,1.13-.66,1.19-.28.08-.79-.51-1.13-.49-.1-.14.72-1.09.59-1.38-.86-.68-.83.78-1.25.88-.09.02-.79-.33-.83-.45-.09-.3.68-1.01.58-1.42ZM89.22,32.65c.41.24,1.16-.84,1.53.31.16.5-.8.68-.74,1.03,0,.05.38.69.53.66l3.15-2.92c.22-.28-.32-1.16-.63-1.13l-4.26,1.28c.09.13.35.74.42.78ZM94.77,33.17l-4.03,1.88c-.07.07-.02.13,0,.2.03.13.86,1.89.95,1.95.12.08.6-.16.61-.22.02-.34-.7-1.22-.56-1.43.17-.27,3.13-1.44,3.23-1.6.12-.18-.15-.57-.2-.78ZM17.97,36.76c-.09-.12-1.39-.47-1.54-.7-.19-.29.61-.94.17-1.76-.34-.63-1.58-1.04-2.11-.48-.16.17-.97,1.82-.89,1.93l3.85,1.78c.29.14.6-.66.52-.77ZM93.08,38.43c.04-.06-.2-.74-.36-.78-.08-.02-.55.22-.59.29-.1.16.07.38.06.4-.17.23-.81-.19-.9-.1-.23.23.4.58.65.59.15,0,1.1-.35,1.13-.4ZM17.28,40.93c.22-.92-.68-1.16-1.39-1.29l-.2.79c.21,0,.55.25.73.2.16-.05.09-.37.31-.29.38.14.06.75.55.6ZM97.56,39.73c-.51.21-4.11,1.11-4.23,1.29-.14.2.4,1.76.6,2,.65.76,2.27.21,3.06-.13,1.79-.75.92-1.7.57-3.16ZM16.19,41.22l-4.51-.19c-.18.06-.3.79-.35,1.02l4.07,2.25c-.05-.21.29-.76.19-.89-.04-.06-.98-.36-1-.47-.03-.21.24-.67.21-.93.93.13,1.36.37,1.39-.8ZM12.21,44.11c-.52.03-1.06-.15-1.44.3-.51.63-.56,1.93.36,2.22,1.51.47,1.89-1.41,2.81-1.33.65.06.65.94,0,.99s-.76-.46-.73.79c2.41.83,2.67-3.29.19-2.63-.67.18-1.19,1.35-1.84,1.35-.4,0-.45-.39-.3-.7.19-.38.68-.09.75-.14.13-.1.15-.66.19-.85ZM98.84,44.32l-4.67-.21s.1.89.19.95c.19.14,1.13-.03,1.2.04.03.03.11.79.09.83-.08.23-.83.29-.94.46-.14.2.13.65.06.9l4.18-1.84c.1-.09-.07-1.09-.11-1.13ZM99.43,48.17c.02-.21.11-.91-.14-.97l-4.32.53c-.12.07-.02.82,0,.85.15.16,2.57-.38,2.98-.4l-2.68,1.44c-.2.24-.07.64-.1.94l4.58-.5-.1-.9-2.88.4,2.67-1.41ZM10.81,47.4s-.6-.17-.67.06-.28,2.12-.21,2.21l4.42.51c.09-.17.31-2.16.23-2.28-.06-.09-.53-.18-.64-.02-.12.19-.13,1.12-.14,1.4l-1.29-.1.1-1.49c-.14.03-.64-.04-.69,0-.09.09-.06,1.06-.15,1.2-.13.18-1.01.11-1.06-.07-.06-.26.25-1.27.1-1.42ZM14.2,53.71c.08-.27,0-1.58,0-1.99s-1.02-.77-1.37-.82c-.49-.07-1.95-.1-2.4.04-1.03.32-.68,1.87-.81,2.72,1.18.02,2.36.06,3.54.09.23,0,.94.26,1.04-.05ZM99.85,52.56h-.7s0,.99,0,.99h-3.78v.8s3.78.1,3.78.1v.9s.7,0,.7,0v-2.79ZM97.56,58.43s.03.26.26.39c.26.15.82.23,1.12.15,1.01-.3.76-1.91.87-2.73l-4.53-.39v.9c.58-.01,1.17,0,1.74.1.14.02.16-.07.15.15-.02.27-.08.75-.32.87-.69.34-2.04-.8-1.77.97.54-.27,1.24.04,1.71-.02.27-.03.68-.45.77-.38ZM14.19,56.15c-.16-.16-3.91.41-4.47.29v.9c1,.02,1.99-.19,2.98-.3l-2.69,1.34c-.2.22-.06.66-.1.95l4.48-.3v-.9c-1-.02-1.99.19-2.98.3l2.87-1.41c.05-.07-.06-.84-.09-.88ZM94.48,62.31l4.51-.21c.22-.07.32-.9.25-1.12-.09-.25-3.73-1.68-4.26-1.86-.25,1.15.11.93,1,1.35-.13.22-.03.62-.2.79-.25.27-1.14.09-1.2.15-.03.03-.02.75-.1.9ZM14.5,59.43l-4.27,1.7.2,1.17,4.56.31c.34-1.44-1.14-.84-1.29-1-.03-.03-.11-.79-.09-.83.12-.35,1.5-.16.89-1.36ZM95.97,65c.47-.02,2.2-.13,2.51-.3.14-.08.31-.86.27-.9l-4.38-1.1-.2.9,2.98.7c-.41-.02-3.11.18-3.27.31-.04.03-.16.74-.21.88.54.07,4.18,1.22,4.37,1.09.03-.02.21-.61.2-.73-.08-.25-2.29-.59-2.68-.66l.4-.2ZM15.19,63.01c-.18-.13-3.81,1.03-4.37.99-.04.04.07.95.32.88l4.09-.99c.28,0,0-.85-.04-.88ZM15.59,64.5c-.64.35-1.44.43-1.99.94l-.09.35c-.75-.66-2.05-.12-1.98.93.01.2.5,1.86.59,1.91.52-.16,4.15-1.08,4.28-1.26.08-.11-.2-.71-.2-.89l-1.89.6c.02-.31-.29-.75-.11-1.02s1.41-.42,1.56-.67c.1-.16-.2-.67-.16-.9ZM94.97,66.59c-.95-.28-1.61-.32-2,.72-.26.68-.22,1.27.45,1.68,1.29.79,1.75-.46,2.69-.84.49-.2.88.22.56.66-.26.37-.79-.03-.89.06-.03.03-.2.7-.19.74.03.14.53.24.65.25,1.27.02,1.91-2.13.51-2.6-1.25-.42-1.87,1.18-2.78,1-.32-.06-.39-.22-.37-.52.04-.84,1.12-.2,1.19-.26.04-.03.25-.83.2-.89ZM16.67,68c-.14-.09-.64.08-.68.25-.04.19.58,1.11.45,1.33-.05.09-.87.44-1.02.48-.19.05-.1-.02-.15-.11-.13-.23-.36-1.03-.47-1.13-.04-.03-.57.14-.59.17-.17.23.46,1.08.38,1.32-.05.15-.86.44-.98.35-.05-.04-.36-1.14-.5-1.24-.1-.07-.5.07-.56.16-.1.14.64,2.07.75,2.15.26.18,3.63-1.42,4.17-1.56-.06-.29-.7-2.11-.8-2.17ZM93.98,73.45c-.85-.44-1.73-.82-2.58-1.25l-.39-.04-.2.78,4.07,1.8c0-.32.57-.97.49-1.23-.07-.22-1.77-1.21-1.98-1.56l2.52.5.55-1.15-4.17-1.94c-.07.3-.28.56-.19.89l3.17,1.3c.02.19-.2.07-.3.05-1.05-.19-2.1-.51-3.15-.73-.25,0-.39.3-.32.51.83.68,1.7,1.33,2.58,1.96l-.1.1ZM18.48,72.26c-.07-.21-.19-.79-.44-.8-.46,0-2.58,1.41-3.21,1.58-.39.04-.3-1.28-1.13-.53l1.25,2.51c.83-.3.48-.53.16-1.13l3.37-1.64ZM17.88,76.54c.26-.29,1.58-1.95,1.65-2.19.06-.19-.23-.82-.4-.8l-3.84,2.24c-.01.05.4.73.45.73.26.02,2.32-1.59,2.44-1.48-.47.73-1.36,1.52-1.78,2.25-.17.3.22.94.42.92.39-.4,3.72-2.02,3.75-2.24.02-.11-.3-.77-.45-.74-.29.05-1.9,1.14-2.24,1.39v-.1ZM94.16,75.66l-3.73-2.1c-.25-.04-.64.83-.23.93l3.45,1.93c.32.1.64-.54.51-.76ZM90.79,77.43c-.82-.46-.46-.17-.79.05-.52.35-1.33-1.38-.18-1.23.46.06,2.94,1.54,2.13,2.18-.38.3-.8-.1-.91-.1-.05,0-.43.57-.44.65-.03.28.72.44.94.44.82,0,1.66-1.24,1.33-2.04-.27-.66-2.43-2.06-3.13-2.05s-1.44.93-1.14,1.59c-.34-.22-.47.16-.59.44.32.17,1.73,1.25,1.94,1.25.26,0,.89-1.13.84-1.19ZM18.58,81.01l3.67-2.55c.05-.18-1.14-1.89-1.25-1.92-.13-.04-.56.17-.54.34.03.31.8,1.12.8,1.2l-1.14.75c-.31-.36-.61-1.45-1.15-.85-.31.35.5.93.6,1.29-.28.16-.64.67-.95.46-.24-.16-.6-.96-.65-.99-.1-.06-.54.15-.57.21-.22.39,1.1,1.59,1.18,2.07ZM87.91,81.31c-.03,1.08,1.02,1.81,1.94,1,.16-.14,1.14-1.35,1.15-1.45,0-.26-3.04-2.45-3.44-2.82-.08,0-.53.51-.52.63.01.15,1.23,1.05,1.47,1.14-.73,1.69-1.68-.23-2.24-.18-.08,0-.61.69-.55.77.8.15,1.3,1.34,2.19.9ZM20.86,81.81c.8-.61,1.5-1.41,2.34-1.99.18-.17-.36-.83-.5-.79l-3.31,2.93c0,.12.74.95.82.96.46,0,1.69-.98,2.24-1.1.13.12-1.34,1.67-1.38,1.96-.05.35.61.88.83,1.12.34-.44,3.38-2.74,3.33-3.02,0-.04-.5-.56-.54-.56-.11,0-1.46,1.3-1.69,1.49-.09.07-.47.37-.54.3l1.62-2.22c.13-.2-.04-.56-.27-.57-.16,0-2.48,1.29-2.84,1.49h-.1ZM85.47,80.62c-1.16.78-.05,1.08-.05,1.54,0,.24-.39.71-.72.63-.6-.15-.74-.98-1.36.16.44.32,3.69,2.38,3.91,2.33.16-.03.86-.74.64-1l-2.42-3.65ZM25.7,82.41c-.11.02-.34.35-.46.44l1.05,1.14-.9.89c-.35-.23-.76-1.09-1.2-.8-.7.46.71.98.64,1.34,0,.06-.6.64-.65.65-.2.03-.79-.83-1.1-.87-.2-.03-.62.46-.33.63l1.54,1.44,3.02-3.15c.05-.12-.02-.19-.08-.28-.11-.17-1.43-1.45-1.53-1.43ZM82.51,83.62c-1.05.24-1.53,1.69-.6,2.45.74.61,1.49.12,2.28.11.51,0,.86.53.4.81-.52.31-.65-.29-.8-.29-.07,0-.67.46-.64.62.02.12.62.5.76.54,1.22.28,2.41-1.38,1.27-2.27-.93-.72-2.18.18-2.73-.26-.45-.36-.06-1.06.42-.92.33.09.46.87,1.02.19.48-.58-.77-1.12-1.38-.98ZM28.03,86.78c.04-.95,1.02-2.01-.4-2.39-.09.09-.42,2.23-.65,2.58-.18.26-1.7.6-2.04.85.18.15.51.61.74.61s1.61-.76,1.74-.66c-.05.32-.96,1.07-.99,1.26-.04.22.53.43.64.63l2.83-3.44c-.81-1.29-1.01.4-1.88.56ZM79.75,85.89c.32.42,2.61,3.56,2.83,3.56.17,0,.8-.55.44-.81l-2.42-3.05c-.36-.31-.49.28-.85.31Z"/>
  <path class="cls-3" d="M62.25,90.17c.05-.16,0-.4.2-.55.02-.07-.1-.07-.15-.05-.06.03-.91.69-1.05.8-.62.07-1.41.43-1.99.2,3.37-3.06,7.38-5.44,10.89-8.36,7.24-6.03,10.78-14.56,16.57-21.73.5-.61,1.18-1.25,1.64-1.84.08-.1.19-.13.15-.3-3.11-.05-5.49,1.96-7.51,4.08-5.17,5.43-8.41,12.89-16.16,15.27-2.95.91-7.8.4-8.53-3.21-.62-3.11,2.03-5.01,3.49-7.39s1.99-4.43-.49-6.26c-2.59,6.41-7.23,11.6-10.89,17.35-2.33,3.66-4.08,7.16-2.48,11.59-13.57-3.64-25.08-15.85-27.62-29.72-4.28-23.34,17.86-46.1,41.28-42.68,15.4,2.25,28.98,15.6,31.67,30.9,3.34,19.04-10.78,37.52-29.02,41.9ZM67.92,32.77v-5.12c-.4-.28-.91-.44-1.37-.62-4.01-1.62-8.08-3.12-12.11-4.69l-13.18,5.11-.3.2v5.12h26.96ZM53.89,48.68v-14.27s-.14-.15-.15-.15h-19.1s-.15.14-.15.15v8.85c.43.29,1.14.19,1.64.25,5.47.68,10.39,1.99,15.44,4.16.29.13,2.22,1.11,2.32,1.01ZM75.18,34.26h-19.3v14.42c.86-.25,1.68-.75,2.52-1.11,5.31-2.29,10.99-3.77,16.78-4.16v-9.15ZM27.61,45.03c-.82.04-1.66.15-2.47.21-.39,2.71-.16,5.63.34,8.33.9,4.9,3.04,9.68,6.1,13.6.26.33,2.12,2.56,2.28,2.59.14.03.17-.08.23-.16.71-.98,1.35-2.35,2.06-3.41,4.33-6.47,10.16-11.9,16.85-15.88-7.74-4.08-16.64-5.72-25.38-5.29ZM84.42,45.31c-6.2-.72-12.4-.22-18.41,1.41-3.18.86-6.33,2.06-9.23,3.6,2.56,1.58,5.01,3.3,7.34,5.2,6.28-.63,12.73.34,18.48,2.9,1.59-4.12,2.16-8.69,1.83-13.12ZM61.65,55.95c.04-.17-.05-.2-.15-.3-.91-.89-2.95-2.18-4.07-2.89-.53-.34-1.87-1.25-2.37-1.42-.13-.04-.21-.09-.33,0-7.59,4.36-14.75,11.01-18.95,18.76-.13.23-.54.87-.44,1.06.07.13,1.45,1.2,1.55,1.15,4.46-6.85,11.11-12.16,18.85-14.88,1.91-.67,3.91-1.21,5.92-1.49ZM81.74,60.12c.07-.09-.03-.18-.11-.24-.18-.14-1.25-.51-1.56-.63-6.17-2.32-13.09-2.76-19.54-1.39-9.11,1.94-17.32,7.66-22.26,15.53,2.75,1.94,5.86,3.4,9.13,4.22,3.91-6.12,8.92-11.65,11.41-18.59,2.64,1.38,4.09,3.54,3.08,6.56-.72,2.14-2.3,3.64-3.51,5.44-3.21,4.81,2.19,6.72,6.17,5.47,7.63-2.38,11.36-10.98,16.89-16.24.11-.11.29-.13.3-.15ZM46.43,78.93c-7.96-2.44-14.68-7.79-19.04-14.83-1.43-2.31-1.73-4.36-4.51-5.44-.95-.37-1.99-.54-3.01-.52-.04.17.07.2.15.3.48.63,1.21,1.28,1.74,1.94,4.22,5.27,6.87,11.69,11.54,16.61,2.36,2.49,5.49,5.13,8.27,7.15.24.17,2.47,1.68,2.58,1.55.06-1.68.61-3.31,1.31-4.81.14-.29,1.05-1.85.98-1.95Z"/>
  <path class="cls-1" d="M45.93,89.77c-1.59-4.43.15-7.93,2.48-11.59,3.67-5.75,8.31-10.95,10.89-17.35,2.48,1.83,1.9,3.95.49,6.26s-4.12,4.28-3.49,7.39c.72,3.62,5.58,4.12,8.53,3.21,7.75-2.38,11-9.84,16.16-15.27,2.02-2.12,4.4-4.13,7.51-4.08.04.17-.07.2-.15.3-.46.6-1.14,1.23-1.64,1.84-5.79,7.17-9.32,15.7-16.57,21.73-3.51,2.92-7.52,5.29-10.89,8.36s-4.57,4.28-4.87,8.9c-.04.63-.42-.12-.59-.3-2.67-2.79-6.52-5.67-7.86-9.4Z"/>
  <path class="cls-6" d="M61.25,90.36c.14-.11.99-.77,1.05-.8.04-.02.16-.03.15.05-.19.15-.14.38-.2.55-.26.8-.64,1.85-1.04,2.59-1.18,2.2-3.36,3.54-5.37,4.87-.04-1.63,1.1-2.98,2.14-4.13.98-1.08,2.15-2.22,3.29-3.13Z"/>
  <path class="cls-8" d="M94.08,73.35c-.88-.62-1.75-1.28-2.58-1.96-.07-.21.07-.51.32-.51,1.05.22,2.1.54,3.15.73.1.02.33.13.3-.05l-3.17-1.3c-.09-.33.12-.59.19-.89l4.17,1.94-.55,1.15-2.52-.5c.21.35,1.92,1.34,1.98,1.56.08.26-.49.91-.49,1.23l-4.07-1.8.2-.78.39.04c.86.42,1.73.81,2.58,1.25.17.09.35.33.6.3-.09-.19-.33-.28-.5-.4Z"/>
  <path class="cls-9" d="M20.17,29.39c-.2-.17-1.75-1.82-1.78-1.95-.04-.21.59-.92.74-1.13l3.62,2.55c.06.13-.4.72-.44.73-.2.02-2.23-1.69-2.34-1.59,0,.2.18.4.3.54.28.35,1.3,1.26,1.44,1.55.1.22.02.54-.21.58-.28.05-2.59-1.26-3.12-1.28l2.64,1.89c.1.16-.36.7-.5.7-.35,0-2.97-2.21-3.54-2.46-.05-.23.56-1.11.75-1.13.22-.02,2.01.83,2.34,1,.1.05.18.23.35.2.15-.14-.23-.19-.25-.2ZM19.67,27.79c.06.06.08.21.2.2.05-.19-.07-.16-.1-.2-.07-.09-.09-.23-.25-.2l-.05.05c.04.07.15.1.2.15Z"/>
  <path class="cls-9" d="M20.86,81.81s-.22.15-.3.2c-.03.02-.4.07-.25.2.16.03.25-.14.35-.2.11-.06.21-.15.3-.2.36-.2,2.68-1.5,2.84-1.49.24,0,.4.37.27.57l-1.62,2.22c.08.07.45-.23.54-.3.23-.19,1.58-1.48,1.69-1.49.04,0,.53.52.54.56.05.28-2.98,2.58-3.33,3.02-.22-.24-.88-.77-.83-1.12.04-.29,1.51-1.84,1.38-1.96-.55.12-1.78,1.11-2.24,1.1-.08,0-.83-.83-.82-.96l3.31-2.93c.14-.03.67.63.5.79-.84.57-1.54,1.38-2.34,1.99ZM22.56,81.81l.39-.35-.05-.05c-.14.15-.4.13-.35.4ZM22.26,83.3c-.12.09-.31.16-.3.35l.05.05.25-.3c.15-.15.2-.25,0-.1Z"/>
  <path class="cls-8" d="M99.43,48.17l-2.67,1.41,2.88-.4.1.9-4.58.5c.03-.3-.1-.7.1-.94l2.68-1.44c-.41.01-2.83.55-2.98.4-.03-.03-.12-.78,0-.85l4.32-.53c.25.06.16.75.14.97Z"/>
  <path class="cls-8" d="M14.19,56.15s.14.8.09.88l-2.87,1.41c.99-.11,1.98-.32,2.98-.3v.9s-4.48.3-4.48.3c.03-.29-.1-.73.1-.95l2.69-1.34c-.99.11-1.98.32-2.98.3v-.9c.56.11,4.31-.45,4.47-.29Z"/>
  <path class="cls-8" d="M28.32,20.83c-.59-.64-1.15-1.34-1.69-2.03l.69-.51,2.78,3.4c.03.17-.55.55-.72.62l-2.65-1.48,1.78,2.06c.12.23-.51.64-.62.62-.22-.04-2.41-3.03-2.75-3.43,0-.19.56-.55.73-.53.18.02,2.17,1.19,2.46,1.38.08.05.09.27.3.2-.02-.16-.22-.21-.3-.3Z"/>
  <path class="cls-9" d="M17.88,76.64c.34-.25,1.95-1.34,2.24-1.39.15-.03.47.63.45.74-.03.22-3.36,1.84-3.75,2.24-.19.02-.59-.61-.42-.92.41-.74,1.3-1.52,1.78-2.25-.12-.11-2.18,1.5-2.44,1.48-.05,0-.46-.68-.45-.73l3.84-2.24c.18-.02.46.61.4.8-.08.24-1.39,1.89-1.65,2.19-.08.09-.28.14-.3.3.21.07.22-.14.3-.2Z"/>
  <path class="cls-11" d="M84.33,22.62c-.27.3-1.45,1.79-1.74,1.79-.15,0-.63-.41-.5-.6l2.89-2.99c.32-.28.81.29.75.64l-1.09,2.65c.49-.31,1.39-1.76,1.79-1.94.29-.13.75.33.68.58-.1.4-2.61,2.45-2.97,3.01-.19.12-.69-.45-.69-.6,0-.17.84-2.11.99-2.44.05-.11.26-.2.2-.4.02.02.1-.02.1-.05,0-.11-.15,0-.1.05-.16.03-.21.2-.3.3ZM84.78,22.03v.1c.06-.03.06-.07,0-.1ZM84.43,24.21l-.05.3c.15-.1.25-.31.05-.3Z"/>
  <path class="cls-11" d="M43.74,12.28c-.05-.09-.16-.5-.25-.5-.2.17.12.42.15.5.15.47.67,2.16.6,2.53-.01.06-.73.2-.79.15-.18-.13-.92-3.85-1.1-4.37.21.07.79-.22.9-.15.14.08,1.51,2.13,1.69,2.44.09.16.14.35.25.5.18,0-.14-.46-.15-.5-.14-.42-.78-2.45-.7-2.73l.74-.15,1.12,4.27c-.27.12-.65.28-.91.1-.23-.15-1.34-1.76-1.54-2.1Z"/>
  <path class="cls-9" d="M95.57,65.2c.39.07,2.6.41,2.68.66,0,.12-.17.7-.2.73-.18.13-3.83-1.02-4.37-1.09.06-.14.18-.85.21-.88.16-.13,2.86-.33,3.27-.31l-2.98-.7.2-.9,4.38,1.1s-.13.82-.27.9c-.31.17-2.05.27-2.51.3-.33.02-.66-.01-.99,0,.04.18.44.17.6.2Z"/>
  <path class="cls-9" d="M36.88,14.86c-.16-.19-.31-.45-.5-.6-.05.3.32.56.4.7.18.35.88,1.77.9,2.04.03.36-.43.41-.75.45l-1.74-4.02c.05-.15.71-.39.89-.31.45.2,1.43,1.63,1.99,1.94,0,.13.13.4.3.35-.03-.19-.25-.36-.3-.45-.4-.73-.7-1.51-1.08-2.26-.02-.24.55-.34.72-.42.28.46,1.89,3.79,1.84,4.01-.04.16-.7.47-.88.31-.59-.62-1.23-1.09-1.79-1.74Z"/>
  <path class="cls-9" d="M97.56,58.43c-.09-.07-.51.35-.77.38-.48.06-1.17-.26-1.71.02-.28-1.77,1.08-.63,1.77-.97.24-.12.31-.61.32-.87.01-.22,0-.12-.15-.15-.57-.09-1.17-.11-1.74-.1v-.9s4.53.39,4.53.39c-.12.82.14,2.43-.87,2.73-.29.09-.86,0-1.12-.15-.23-.13-.24-.37-.26-.39ZM99.04,57.05c-.08-.12-1.12-.16-1.17-.11-.02.02-.09.49-.09.55.02.51.73.73,1.08.5.14-.09.27-.8.18-.93Z"/>
  <path class="cls-11" d="M61.35,13.97c-1.7.03-.64-.89-.92-1.82-.08-.26-.57-.33-.83-.36-.22-.03-.11,0-.14.14-.11.57-.13,1.17-.2,1.74l-.89-.11c.22-1.35.25-2.88.49-4.22.02-.11.04-.21.16-.24.08-.02,1.54.19,1.73.24.85.22,1.08.8.82,1.63-.14.46-.46.43-.53.52-.15.19.3.23.3.45v2.04ZM59.57,11.08c1.48.53,1.72-1.34.09-1.19l-.09,1.19Z"/>
  <path class="cls-9" d="M15.59,64.5c-.04.23.26.74.16.9-.15.24-1.37.39-1.56.67s.13.71.11,1.02l1.89-.6c0,.18.27.78.2.89-.13.18-3.76,1.1-4.28,1.26-.08-.06-.57-1.72-.59-1.91-.07-1.05,1.23-1.59,1.98-.93l.09-.35c.55-.51,1.35-.59,1.99-.94ZM13.6,67.39c-.05-.52-.09-1.08-.74-.99-.88.12-.53.67-.36,1.29l1.09-.3Z"/>
  <path class="cls-11" d="M87.91,81.31c-.88.44-1.38-.75-2.19-.9-.07-.08.47-.76.55-.77.56-.05,1.51,1.87,2.24.18-.24-.09-1.46-.99-1.47-1.14,0-.12.44-.63.52-.63.4.37,3.44,2.55,3.44,2.82,0,.1-.99,1.31-1.15,1.45-.92.81-1.97.08-1.94-1ZM89.05,80.33c-1.23.99.25,2.17.94.74l-.94-.74Z"/>
  <path class="cls-11" d="M78.66,18.35c.54.79-.67,1.46-.6,2.29l-.9-.46c.21-.88,1.46-1.66.07-2.22-.32.12-.85,1.4-.97,1.47-.15.09-.78-.29-.79-.34-.05-.37,2.11-3.2,2.3-3.82.52.26,1.93.99,2.07,1.56.17.74-.41,1.54-1.17,1.52ZM78.21,16.26l-.64,1.04c1.08,1.13,2.12-.44.64-1.04Z"/>
  <path class="cls-11" d="M22.85,25.11c.8-.37,1.95.81,1.74,1.59-.07.28-1.19,1.83-1.6,1.4l-3.04-2.65c-.03-.17.55-.83.7-.99.23-.23.52-.6.86-.64.61-.08,1.48.62,1.33,1.29ZM22.02,24.95c-.28-.27-.62-.35-.86,0-.3.43.43.56.65.95.34-.31.62-.57.21-.96ZM22.83,25.92c-.17.05-.32.32-.47.43l1.04.85c.72-.48.12-1.48-.57-1.28Z"/>
  <path class="cls-8" d="M91,29.78c0-.25-.38-.46-.39-.66s.42-.2.4-.68c-.07-1.41-2.63.63-2.82,1.08-.33.78.73.84,1.22.42.2-.18-.32-.45-.19-.63.02-.03.45-.26.54-.31l.74,1.13c-.04.21-1.68,1.25-1.98,1.46-.1-.4-.5-.39-.1-.79-.83.03-1.21-.81-1.09-1.54s2.52-2.31,3.22-2.24c1.19.12,1.97,2.33.46,2.78Z"/>
  <path class="cls-11" d="M14.2,53.71c-.1.31-.81.05-1.04.05-1.18-.04-2.36-.07-3.54-.09.14-.85-.21-2.4.81-2.72.44-.14,1.9-.11,2.4-.04.35.05,1.37.42,1.37.82s.08,1.72,0,1.99ZM13.38,51.99c-.28-.28-2.18-.29-2.59-.2-.45.1-.48.85-.36.97.21.21,2.6,0,3.08.2-.01-.25.06-.79-.12-.97Z"/>
  <path class="cls-11" d="M97.56,39.73c.35,1.46,1.22,2.41-.57,3.16-.8.34-2.41.89-3.06.13-.2-.24-.74-1.79-.6-2,.13-.18,3.73-1.08,4.23-1.29ZM94.18,41.62c-.11,1.45,2.05.72,2.76.32.6-.35.38-.68.18-1.21l-2.94.89Z"/>
  <path class="cls-8" d="M90.79,77.43c.04.06-.58,1.2-.84,1.19-.21,0-1.62-1.09-1.94-1.25.13-.28.26-.66.59-.44-.3-.67.46-1.58,1.14-1.59s2.86,1.39,3.13,2.05c.33.8-.51,2.04-1.33,2.04-.21,0-.96-.16-.94-.44,0-.08.38-.65.44-.65.1,0,.52.4.91.1.81-.64-1.67-2.12-2.13-2.18-1.15-.15-.35,1.58.18,1.23.34-.22-.03-.52.79-.05Z"/>
  <path class="cls-8" d="M86.82,26.3s.5-.3.53-.29c.14.02.81.8.85,1.02-.02.11-1.63,1.52-1.74,1.55-.16.04-.5-.51-.44-.59.03-.04.24.08.2-.1-.66.1-1.31-.73-1.29-1.34.04-.81,2.33-2.69,3.12-2.64.57.04,1.46,1.05,1.43,1.62-.02.3-.45,1.22-.82.97-.84-.57-.05-.74-.05-1.15,0-.44-.41-.62-.79-.5-.28.09-1.79,1.39-1.91,1.67-.21.47.14.86.62.73,1.05-.29.25-.89.3-.95Z"/>
  <path class="cls-11" d="M47.92,9.39c1.38-.06,2.61-.8,3.04.99.2.82.48,2.72-.41,3.17-.24.12-1.48.31-1.78.32-.11,0-.23,0-.3-.1l-.54-4.38ZM49.21,13.07c.5.07,1.02-.11,1.09-.66.04-.31-.15-1.71-.26-2.01-.22-.59-.6-.63-1.13-.36l.3,3.02Z"/>
  <path class="cls-8" d="M31.07,16.69c.35.36.24.73-.24.85-.23.05-.92-.8-1.27-.09-.19.39.22.93.43,1.27.27.44,1.18,1.96,1.7,1.16.26-.39-.12-.74-.19-1.13-.12-.09-.47.3-.55.29-.04,0-.35-.44-.34-.53.03-.17.94-.8,1.11-.75.2.05,1.15,1.64,1.36,1.92-.29.25-.47.49-.79.16.02.9-1.07,1.34-1.82.88-.56-.35-1.87-2.27-1.87-2.92,0-1.07,1.65-1.94,2.46-1.11Z"/>
  <path class="cls-11" d="M67.32,10.69c.15.17-.6,1.62-.34,1.8.19.12.71.11.94.29l.51-1.69.8.26c-.1.52-1.12,4.26-1.35,4.29-.03,0-.65-.2-.66-.24-.11-.39.58-1.96.5-2.03l-1.09-.3c-.07.29-.47,1.94-.64,1.97-.04,0-.73-.15-.75-.18-.15-.17,1.19-3.73,1.24-4.28.05-.14.81.07.84.1Z"/>
  <path class="cls-9" d="M34.19,13.97c.27.95,1.79,2.72,1.78,3.63-.01.78-1.41,1.57-2.15,1.27-.68-.28-1.75-2.86-2.22-3.55.2-.08.64-.41.8-.31.26.16,1.21,2.28,1.55,2.74.55.73,1.21.3.99-.49l-1.55-2.84c-.02-.17.7-.5.79-.44Z"/>
  <path class="cls-11" d="M28.03,86.78c.87-.16,1.07-1.85,1.88-.56l-2.83,3.44c-.11-.2-.68-.41-.64-.63.03-.18.93-.93.99-1.26-.13-.11-1.49.66-1.74.66s-.56-.46-.74-.61c.34-.25,1.86-.59,2.04-.85.23-.35.56-2.49.65-2.58,1.42.37.44,1.44.4,2.39Z"/>
  <path class="cls-9" d="M82.51,83.62c.61-.14,1.86.4,1.38.98-.56.68-.7-.1-1.02-.19-.48-.13-.87.57-.42.92.55.43,1.8-.46,2.73.26,1.14.88-.05,2.54-1.27,2.27-.14-.03-.74-.42-.76-.54-.03-.16.57-.62.64-.62.15,0,.28.6.8.29.46-.28.12-.81-.4-.81-.79.01-1.54.5-2.28-.11-.92-.76-.44-2.21.6-2.45Z"/>
  <path class="cls-11" d="M94.97,66.59c.06.06-.16.86-.2.89-.07.05-1.14-.59-1.19.26-.02.3.05.46.37.52.91.18,1.53-1.42,2.78-1,1.4.47.76,2.62-.51,2.6-.13,0-.62-.11-.65-.25,0-.04.17-.71.19-.74.09-.09.62.31.89-.06.32-.45-.07-.86-.56-.66-.94.38-1.4,1.63-2.69.84-.67-.41-.7-1-.45-1.68.39-1.04,1.05-1,2-.72Z"/>
  <path class="cls-8" d="M94.48,62.31c.08-.14.07-.86.1-.9.05-.06.94.12,1.2-.15.16-.17.07-.57.2-.79-.88-.41-1.24-.2-1-1.35.53.18,4.18,1.61,4.26,1.86.07.21-.03,1.04-.25,1.12l-4.51.21ZM96.47,61.32h1.79l-1.64-.6-.15.6Z"/>
  <path class="cls-9" d="M64.83,14.66c-1.49-.07-.73-.33-.89-1.14-.06-.29-.9-.4-.99-.34-.28.2,0,1.44-1.3.84.29-.53,1.74-4.03,1.99-4.18.06-.03,1,.16,1.06.25.02.04.14.8.14.85v3.73ZM63.94,12.67l.1-1.99-.79,1.74.69.25Z"/>
  <path class="cls-11" d="M98.84,44.32s.22,1.04.11,1.13l-4.18,1.84c.07-.25-.2-.7-.06-.9.12-.17.87-.23.94-.46.01-.04-.06-.8-.09-.83-.07-.07-1.01.1-1.2-.04-.09-.07-.23-.92-.19-.95l4.67.21ZM98.06,45h-1.79c.01.24-.08.53.15.69l1.64-.69Z"/>
  <path class="cls-9" d="M14.5,59.43c.62,1.2-.77,1.01-.89,1.36-.01.04.06.8.09.83.15.16,1.64-.45,1.29,1l-4.56-.31-.2-1.17,4.27-1.7ZM13.01,61.62c0-.21.07-.59-.24-.59l-1.55.59h1.79Z"/>
  <path class="cls-11" d="M12.21,44.11c-.04.19-.07.76-.19.85-.07.05-.56-.23-.75.14-.15.31-.1.7.3.7.65,0,1.16-1.17,1.84-1.35,2.48-.66,2.22,3.47-.19,2.63-.03-1.25.09-.74.73-.79s.65-.94,0-.99c-.92-.08-1.3,1.79-2.81,1.33-.92-.29-.87-1.59-.36-2.22.37-.46.92-.27,1.44-.3Z"/>
  <path class="cls-11" d="M54.98,13.37c-.2-.09-.81.13-.9.06-.16-.12-.23-1.08-.3-1.14-.08-.07-.93.04-.97.1-.03.04-.04,1-.11,1.08-.05.05-.72-.03-.89,0l.81-4.46c.28-.07,1.04-.25,1.23-.02l1.14,4.38ZM52.99,11.68c1.1.19.33-1.17.3-1.79l-.28,1.26v.53Z"/>
  <path class="cls-11" d="M89.22,32.65c-.07-.04-.33-.65-.42-.78l4.26-1.28c.3-.03.85.86.63,1.13l-3.15,2.92c-.15.03-.52-.61-.53-.66-.06-.35.91-.52.74-1.03-.37-1.15-1.12-.07-1.53-.31ZM92.59,31.58l-1.45.49c.03.33.08.73.41.5s.78-.67,1.04-1Z"/>
  <path class="cls-11" d="M40.65,11.19l2.4,3.97c-.3.03-.59.3-.89.15-.21-.1-.45-.84-.56-.86-.04,0-.79.18-.82.22-.15.17.21,1.13.08,1.27-.03.03-.75.19-.89.21l-.4-4.43c.06-.32.79-.4,1.09-.54ZM41.26,13.87l-.89-1.59.2,1.79.7-.2Z"/>
  <path class="cls-9" d="M85.47,80.62l2.42,3.65c.22.26-.48.97-.64,1-.22.04-3.47-2.01-3.91-2.33.63-1.14.77-.31,1.36-.16.33.08.72-.38.72-.63,0-.46-1.11-.76.05-1.54ZM86.02,82.81c-.15-.1-.48.36-.59.45l1.39.94c.16-.2-.78-1.1-.8-1.39Z"/>
  <path class="cls-11" d="M27.53,23.72c-.64,1.35-.93.28-1.49.14-.11-.03-.68.54-.69.62-.04.24,1.22,1.24-.2,1.52-.14-.58-2.26-3.62-2.18-3.9.03-.1.7-.83.89-.73l3.68,2.35ZM24.05,22.52c.13.19.74,1.27.85,1.29,1.06-.45-.3-.94-.75-1.29l-.35-.4c-.07.17.2.32.25.4Z"/>
  <path class="cls-11" d="M16.19,41.22c-.03,1.16-.46.93-1.39.8.03.26-.24.72-.21.93.02.1.95.41,1,.47.09.13-.24.68-.19.89l-4.07-2.25c.05-.23.17-.95.35-1.02l4.51.19ZM12.51,41.82s-.19-.2-.4-.1c-.03.12.16.14.3.2.53.23,1.05.49,1.59.7l.1-.7c-.53-.02-1.07-.05-1.59-.1Z"/>
  <path class="cls-11" d="M17.97,36.76c.09.12-.23.91-.52.77l-3.85-1.78c-.08-.11.72-1.76.89-1.93.53-.56,1.77-.15,2.11.48.44.82-.36,1.47-.17,1.76.15.23,1.45.58,1.54.7ZM14.6,35.25l1.04.5c1.03-1.1-.94-2.06-1.04-.5Z"/>
  <path class="cls-8" d="M55.38,13.47l.2-4.58,2.39.1v.7h-1.49c-.05,0-.18.82-.06,1,.14.2,1.07.05,1.35.09v.7h-1.39l-.1,1.29c.79.08,1.71-.39,1.49.79-.14.06-.3-.1-.35-.1h-2.04Z"/>
  <path class="cls-8" d="M16.67,68c.1.06.74,1.88.8,2.17-.54.14-3.92,1.74-4.17,1.56-.11-.08-.85-2.01-.75-2.15.06-.08.46-.23.56-.16.14.1.45,1.21.5,1.24.12.09.93-.2.98-.35.07-.24-.55-1.09-.38-1.32.02-.03.56-.2.59-.17.11.09.34.9.47,1.13.05.09-.04.16.15.11.15-.04.97-.4,1.02-.48.14-.22-.49-1.15-.45-1.33.04-.17.53-.33.68-.25Z"/>
  <path class="cls-8" d="M76.97,14.67s-.14.6-.35.6c-.33,0-1.29-.65-1.34-.61.02.25-.43.77-.39.94.09.39,1.38.27,1.01,1.03-.24.5-.99-.25-1.37-.36l-.63,1.14,1.28.65c.09.12-.15.58-.29.64-.1.05-1.99-.95-2.05-1.05-.12-.19,1.86-3.43,1.95-3.98.28.15,2.12.9,2.19,1Z"/>
  <path class="cls-8" d="M16.88,30.59c.1.4-.67,1.12-.58,1.42.04.12.74.48.83.45.42-.1.39-1.56,1.25-.88.13.29-.69,1.24-.59,1.38.34-.02.85.57,1.13.49.2-.06.59-1.13.66-1.19.03-.03.57.19.58.21.17.27-.88,1.8-1.08,2.13l-3.88-2.15c-.07-.09.99-1.98,1.09-2.04.16-.1.41.15.59.17Z"/>
  <path class="cls-8" d="M10.81,47.4c.15.15-.16,1.16-.1,1.42.04.18.93.26,1.06.07.09-.14.05-1.1.15-1.2.05-.05.55.02.69,0l-.1,1.49,1.29.1c.01-.28.02-1.21.14-1.4.11-.16.58-.07.64.02.08.12-.14,2.11-.23,2.28l-4.42-.51c-.08-.09.13-1.98.21-2.21s.64-.09.67-.06Z"/>
  <path class="cls-8" d="M25.7,82.41c.1-.02,1.42,1.26,1.53,1.43.06.09.13.16.08.28l-3.02,3.15-1.54-1.44c-.29-.17.13-.66.33-.63.31.05.9.91,1.1.87.06,0,.64-.6.65-.65.06-.36-1.35-.87-.64-1.34.44-.29.84.57,1.2.8l.9-.89-1.05-1.14c.12-.09.35-.42.46-.44Z"/>
  <path class="cls-9" d="M18.58,81.01c-.07-.48-1.4-1.68-1.18-2.07.03-.05.46-.27.57-.21.05.03.42.83.65.99.31.21.67-.3.95-.46-.1-.35-.91-.93-.6-1.29.53-.61.84.49,1.15.85l1.14-.75c0-.08-.76-.89-.8-1.2-.02-.17.41-.37.54-.34.11.03,1.3,1.74,1.25,1.92l-3.67,2.55Z"/>
  <path class="cls-8" d="M80.45,17.85c-.04-.06.26-.67.53-.58.11.04,1.73,1.28,1.86,1.42.27.28.11.69-.16.74-.19.04-.53-.61-.83-.45l-2.24,2.94c-.13-.16-.68-.41-.64-.63.23-.41,2.19-2.69,2.19-2.9,0-.18-.51-.5-.7-.55Z"/>
  <path class="cls-8" d="M74.18,13.27s-.19.59-.26.6c-.3.06-.82-.39-.93-.31-.23.43-1.29,3.32-1.49,3.44-.13.08-.61-.26-.8-.26l1.5-3.53c-.53-.32-1.14-.26-.6-1.01.33.14,2.51.94,2.59,1.05Z"/>
  <path class="cls-9" d="M18.48,72.26l-3.37,1.64c.31.6.66.83-.16,1.13l-1.25-2.51c.83-.76.75.56,1.13.53.62-.17,2.75-1.59,3.21-1.58.25,0,.37.58.44.8Z"/>
  <polygon class="cls-11" points="99.85 52.56 99.85 55.35 99.15 55.35 99.15 54.45 95.37 54.36 95.37 53.56 99.15 53.56 99.15 52.56 99.85 52.56"/>
  <path class="cls-11" d="M94.77,33.17c.05.2.31.59.2.78-.1.16-3.06,1.33-3.23,1.6-.14.21.58,1.09.56,1.43,0,.06-.49.29-.61.22-.09-.06-.92-1.81-.95-1.95-.02-.07-.07-.13,0-.2l4.03-1.88Z"/>
  <path class="cls-8" d="M15.19,63.01s.31.88.04.88l-4.09.99c-.26.07-.36-.84-.32-.88.56.04,4.19-1.12,4.37-.99Z"/>
  <path class="cls-9" d="M94.16,75.66c.13.23-.19.86-.51.76l-3.45-1.93c-.41-.11-.02-.97.23-.93l3.73,2.1Z"/>
  <path class="cls-9" d="M81.53,23.3c-.09.05-.2.01-.29-.04l-.5-.5,2.8-3.32c.22-.13.82.41.64.68l-2.65,3.17Z"/>
  <path class="cls-9" d="M79.75,85.89c.36-.03.49-.61.85-.31l2.42,3.05c.36.26-.27.81-.44.81-.23,0-2.51-3.14-2.83-3.56Z"/>
  <path class="cls-8" d="M17.28,40.93c-.49.15-.17-.46-.55-.6-.21-.08-.14.24-.31.29-.19.05-.52-.19-.73-.2l.2-.79c.71.14,1.61.38,1.39,1.29Z"/>
  <path class="cls-8" d="M93.08,38.43s-.98.4-1.13.4c-.26-.01-.88-.36-.65-.59.08-.09.73.33.9.1.01-.02-.16-.23-.06-.4.04-.07.51-.31.59-.29.15.05.4.73.36.78Z"/>
  <path class="cls-2" d="M95.97,65l-.4.2c-.15-.03-.56-.02-.6-.2.33-.01.67.02.99,0Z"/>
  <path class="cls-12" d="M36.88,14.86l-.1.1c-.07-.14-.45-.4-.4-.7.19.14.34.41.5.6Z"/>
  <path class="cls-2" d="M94.08,73.35c.17.12.41.2.5.4-.25.04-.42-.21-.6-.3l.1-.1Z"/>
  <path class="cls-12" d="M43.74,12.28h-.1c-.03-.08-.35-.32-.15-.5.09,0,.2.41.25.5Z"/>
  <path class="cls-12" d="M84.43,22.72l-.1-.1c.09-.1.14-.27.3-.3.06.2-.15.28-.2.4Z"/>
  <path class="cls-2" d="M20.17,29.39s.4.06.25.2c-.16.03-.25-.15-.35-.2h.1Z"/>
  <path class="cls-12" d="M17.88,76.64c-.08.06-.08.27-.3.2.02-.16.22-.21.3-.3v.1Z"/>
  <path class="cls-12" d="M20.86,81.81h.1c-.08.05-.19.13-.3.2h-.1c.08-.05.25-.16.3-.2Z"/>
  <path class="cls-12" d="M28.32,20.83c.08.09.28.14.3.3-.21.07-.22-.15-.3-.2v-.1Z"/>
  <path class="cls-2" d="M45.04,12.87s.33.5.15.5c-.11-.15-.16-.34-.25-.5h.1Z"/>
  <path class="cls-7" d="M81.74,60.12s-.19.04-.3.15c-5.53,5.26-9.26,13.86-16.89,16.24-3.98,1.24-9.38-.67-6.17-5.47,1.2-1.8,2.79-3.3,3.51-5.44,1.01-3.02-.43-5.18-3.08-6.56-2.49,6.94-7.5,12.47-11.41,18.59-3.27-.82-6.38-2.29-9.13-4.22,4.94-7.87,13.15-13.59,22.26-15.53,6.45-1.37,13.37-.93,19.54,1.39.31.12,1.38.49,1.56.63.07.06.17.15.11.24Z"/>
  <path class="cls-7" d="M27.61,45.03c8.75-.43,17.64,1.22,25.38,5.29-6.69,3.98-12.52,9.4-16.85,15.88-.71,1.06-1.35,2.43-2.06,3.41-.06.08-.09.19-.23.16-.17-.04-2.03-2.27-2.28-2.59-3.06-3.92-5.2-8.7-6.1-13.6-.5-2.7-.73-5.62-.34-8.33.82-.06,1.65-.17,2.47-.21Z"/>
  <path class="cls-7" d="M84.42,45.31c.33,4.43-.24,8.99-1.83,13.12-5.75-2.56-12.2-3.53-18.48-2.9-2.33-1.9-4.78-3.62-7.34-5.2,2.9-1.55,6.05-2.74,9.23-3.6,6.01-1.63,12.22-2.13,18.41-1.41Z"/>
  <path class="cls-5" d="M53.89,48.68c-.1.1-2.03-.89-2.32-1.01-5.05-2.17-9.97-3.48-15.44-4.16-.5-.06-1.21.04-1.64-.25v-8.85s.14-.15.15-.15h19.1s.15.14.15.15v14.27Z"/>
  <path class="cls-5" d="M75.18,34.26v9.15c-5.79.39-11.47,1.87-16.78,4.16-.84.36-1.66.86-2.52,1.11v-14.42h19.3Z"/>
  <path class="cls-5" d="M67.92,32.77h-26.96v-5.12l.3-.2,13.18-5.11c4.03,1.57,8.1,3.07,12.11,4.69.45.18.97.34,1.37.62v5.12Z"/>
  <path class="cls-6" d="M46.43,78.93c.07.1-.84,1.66-.98,1.95-.7,1.5-1.25,3.13-1.31,4.81-.11.13-2.34-1.38-2.58-1.55-2.78-2.02-5.91-4.66-8.27-7.15-4.67-4.92-7.32-11.34-11.54-16.61-.53-.66-1.25-1.31-1.74-1.94-.08-.1-.19-.13-.15-.3,1.02-.02,2.06.15,3.01.52,2.78,1.08,3.07,3.13,4.51,5.44,4.36,7.04,11.08,12.4,19.04,14.83Z"/>
  <path class="cls-4" d="M61.65,55.95c-2.01.28-4.01.82-5.92,1.49-7.73,2.72-14.38,8.03-18.85,14.88-.1.05-1.48-1.02-1.55-1.15-.1-.19.31-.83.44-1.06,4.19-7.75,11.36-14.4,18.95-18.76.13-.09.21-.04.33,0,.5.17,1.84,1.08,2.37,1.42,1.13.71,3.17,2,4.07,2.89.1.09.19.13.15.3Z"/>
  <path class="cls-12" d="M19.77,27.79h-.1s-.16-.08-.2-.15l.05-.05c.16-.03.18.11.25.2Z"/>
  <path class="cls-14" d="M19.77,27.79s.15.01.1.2c-.12,0-.14-.14-.2-.2h.1Z"/>
  <path class="cls-12" d="M22.26,83.4l-.25.3-.05-.05c0-.19.18-.26.3-.35v.1Z"/>
  <path class="cls-2" d="M22.56,81.81c-.05-.26.21-.24.35-.4l.05.05-.39.35Z"/>
  <path class="cls-2" d="M20.57,82.01h.1c-.1.06-.18.23-.35.2-.15-.13.22-.18.25-.2Z"/>
  <path class="cls-14" d="M22.26,83.4v-.1c.2-.15.15-.05,0,.1Z"/>
  <path class="cls-2" d="M84.43,24.21c.2-.02.1.19-.05.3l.05-.3Z"/>
  <path class="cls-2" d="M84.63,22.32s.09-.16.1-.05c0,.03-.08.07-.1.05Z"/>
  <path class="cls-2" d="M84.78,22.03c.06.03.06.07,0,.1v-.1Z"/>
  <path class="cls-12" d="M38.07,15.06v-.1c.05.09.27.26.3.45-.16.06-.3-.22-.3-.35Z"/>
  <path class="cls-10" d="M99.04,57.05c.09.14-.04.84-.18.93-.35.23-1.07.02-1.08-.5,0-.06.07-.53.09-.55.05-.05,1.1-.01,1.17.11Z"/>
  <path class="cls-13" d="M59.57,11.08l.09-1.19c1.63-.15,1.39,1.72-.09,1.19Z"/>
  <path class="cls-10" d="M13.6,67.39l-1.09.3c-.17-.62-.52-1.17.36-1.29.65-.09.69.47.74.99Z"/>
  <path class="cls-13" d="M89.05,80.33l.94.74c-.68,1.43-2.16.26-.94-.74Z"/>
  <path class="cls-13" d="M78.21,16.26c1.48.6.44,2.17-.64,1.04l.64-1.04Z"/>
  <path class="cls-10" d="M22.83,25.92c.69-.21,1.29.79.57,1.28l-1.04-.85c.14-.11.3-.38.47-.43Z"/>
  <path class="cls-13" d="M22.02,24.95c.41.39.13.65-.21.96-.22-.39-.95-.52-.65-.95.25-.36.58-.28.86,0Z"/>
  <path class="cls-10" d="M13.38,51.99c.18.18.11.72.12.97-.48-.2-2.87,0-3.08-.2-.12-.12-.08-.87.36-.97.41-.09,2.31-.08,2.59.2Z"/>
  <path class="cls-10" d="M94.18,41.62l2.94-.89c.2.54.41.87-.18,1.21-.7.41-2.87,1.14-2.76-.32Z"/>
  <path class="cls-10" d="M49.21,13.07l-.3-3.02c.54-.28.91-.24,1.13.36.11.31.31,1.71.26,2.01-.07.54-.59.72-1.09.66Z"/>
  <polygon class="cls-13" points="96.47 61.32 96.62 60.72 98.26 61.32 96.47 61.32"/>
  <polygon class="cls-15" points="63.94 12.67 63.24 12.43 64.04 10.69 63.94 12.67"/>
  <path class="cls-15" d="M98.06,45l-1.64.69c-.23-.16-.14-.46-.15-.69h1.79Z"/>
  <path class="cls-13" d="M13.01,61.62h-1.79l1.55-.59c.31,0,.25.39.24.59Z"/>
  <path class="cls-15" d="M52.99,11.68v-.53s.3-1.26.3-1.26c.03.62.8,1.98-.3,1.79Z"/>
  <path class="cls-15" d="M92.59,31.58c-.26.32-.71.76-1.04,1s-.38-.17-.41-.5l1.45-.49Z"/>
  <polygon class="cls-15" points="41.26 13.87 40.56 14.07 40.36 12.28 41.26 13.87"/>
  <path class="cls-15" d="M86.02,82.81c.02.29.95,1.19.8,1.39l-1.39-.94c.11-.08.44-.55.59-.45Z"/>
  <path class="cls-15" d="M24.05,22.52h.1c.45.36,1.81.84.75,1.29-.11-.03-.72-1.1-.85-1.29Z"/>
  <path class="cls-2" d="M24.15,22.52h-.1c-.05-.08-.32-.23-.25-.4l.35.4Z"/>
  <path class="cls-15" d="M12.51,41.82c.52.05,1.07.08,1.59.1l-.1.7c-.54-.21-1.06-.46-1.59-.7l.1-.1Z"/>
  <path class="cls-2" d="M12.51,41.82l-.1.1c-.14-.06-.33-.08-.3-.2.21-.1.38.1.4.1Z"/>
  <path class="cls-13" d="M14.6,35.25c.1-1.56,2.07-.6,1.04.5l-1.04-.5Z"/>
</svg>